<?xml version="1.0" encoding="UTF-8"?>
<!DOCTYPE svg  PUBLIC '-//W3C//DTD SVG 1.1//EN'  'http://www.w3.org/Graphics/SVG/1.1/DTD/svg11.dtd'>
<svg width="1.2in" height="1.2in" clip-rule="evenodd" fill-rule="evenodd" image-rendering="optimizeQuality" shape-rendering="geometricPrecision" text-rendering="geometricPrecision" version="1.1" viewBox="0 0 1200 1200" xml:space="preserve" xmlns="http://www.w3.org/2000/svg">
 <defs>
  <style type="text/css">
   
    .str0 {stroke:#D8E2DD;stroke-width:3;stroke-miterlimit:2.61313}
    .fil6 {fill:none}
    .fil1 {fill:#081A30}
    .fil9 {fill:#192533}
    .fil5 {fill:#198CB8}
    .fil4 {fill:#60A9CC}
    .fil3 {fill:#D8E2DD}
    .fil7 {fill:#EB0A3A}
    .fil2 {fill:whitesmoke}
    .fil8 {fill:#86061F;fill-opacity:0.200000}
    .fil0 {fill:url(#a)}
   
  </style>
     <clipPath id="g">
      <path d="m464.39 74.05 174.85 136-159.39 130.06c-1.86-20.11-0.59-40.74-1.59-59.29-272.54-66.59-524.8 551.85 27.76 659.17-2.78 45.33-5.55 90.67-8.33 136-556.59-170.64-512.55-786.44-31.92-922.84l-1.39-79.1z"/>
     </clipPath>
     <clipPath id="f">
      <path d="m728.06 132.33c69.62 18.73 118.77 46.48 165.14 83.26l-88.81 102.69-74.94-48.57c-0.46-45.8-0.93-91.59-1.39-137.38z"/>
     </clipPath>
     <clipPath id="e">
      <path d="m977.85 293.31-91.59 81.88 62.45 106.85 120.73-43.02c-12.83-64.87-49.96-108.24-91.59-145.71z"/>
     </clipPath>
     <clipPath id="d">
      <path d="m965.37 538.94c44.87-4.17 89.74-8.33 134.61-12.49 10.52 63.37 9.6 104.54-2.78 160.98l-136-4.16c14.57-37.7 17.35-89.97 4.17-144.32z"/>
     </clipPath>
     <clipPath id="c">
      <path d="m937.61 734.61 133.22 38.86c-21.74 72.04-46.26 111.83-90.2 152.65l-95.75-87.43 52.74-104.08z"/>
     </clipPath>
     <clipPath id="b">
      <path d="m790.51 876.16 79.1 101.3-116.57 73.55-2.78 74.94-177.63-134.61 176.24-149.87 2.78 61.06 38.86-26.37z"/>
     </clipPath>
  <linearGradient id="a" x1="756.47" x2="713.97" y1="453.3" y2="875.91" gradientUnits="userSpaceOnUse">
   <stop stop-color="#EB0A3A" offset="0"/>
   <stop stop-color="#86061F" offset="1"/>
  </linearGradient>
 </defs>
 
  
  
   
    
     <path class="fil0" d="m709.14 632.94-206.11 50.44 0.81 8.71-10.93 4.93-0.63 25.19 11.19-1.91 3.67 9.23 30.04-5.71c4.11-64.29 69.67-80.32 68.57-17.79l38.83-9.86c4.98-11.65-3.5-8.11 7.52-12.38 2.76-1.07 12.45-2.7 16.29-3.51l3.67 12.34 55.05-13.08 2.8-14.9c7.32-0.1 3.98 2.05 8.12 7.78l95.39-22.78c3.11-25.16 12.76-42.18 28.22-50.64 9.59-5.24 22.18-5.41 30.19 1.34 9.09 7.67 9.88 17.54 10.87 31.46 5.02-0.65 8.67-1.37 13.38-2.55 11.93-2.98 16.33-10.99 20.84-33.49l-6.05-3.16c-0.41-0.19-1.09-0.48-1.43-0.63-0.33-0.15-0.97-0.33-1.42-0.59l1.51-52.82c-31.35-17.86-42.96-4.74-53.37-15.9l-34.19-37.93c-9.32-9.26-23.71-31.25-37.17-34.62-14.27-3.57-41.9 5.37-56.8 8.93-4.9 16.51-9.27 149.9-10.55 177.96l-28.61 6.94 0.3-11.01z"/>
     <path class="fil1" d="m833.42 649.65c1.19 25.08 16.85 40.73 39.03 30.29 17.07-8.04 26.33-25.01 30.25-48.13-0.99-13.93-1.78-23.8-10.87-31.46-8.02-6.76-20.6-6.59-30.19-1.34-15.46 8.46-25.11 25.48-28.22 50.64z"/>
     <path class="fil1" d="m537.18 723.83c1.89 24.24 17.82 37.73 38.44 28.38 15.82-7.17 26.07-22.97 30.13-46.17 1.09-62.53-64.46-46.5-68.57 17.79z"/>
     <path class="fil2" d="m771.91 482.93-3.96 62.44 88.28-21.08c-2.5-5.97-26.9-31.25-33.75-38.2-7.17-7.27-9.71-12.57-23.31-9.91-8.81 1.73-18.03 4.33-27.26 6.75z"/>
     <path class="fil3" d="m567.97 689.54c-24.71 14.14-16.69 55.23 7.39 42.52 21.48-11.35 19.69-58.01-7.39-42.52z"/>
     <path class="fil3" d="m864.69 617.21c-26.5 16.56-15.16 55.52 7.46 42.54 22.02-12.64 17.46-58.11-7.46-42.54z"/>
    
    <path class="fil4" d="m464.39 74.05 174.85 136-159.39 130.06c-1.86-20.11-0.59-40.74-1.59-59.29-272.54-66.59-524.8 551.85 27.76 659.17-2.78 45.33-5.55 90.67-8.33 136-556.59-170.64-512.55-786.44-31.92-922.84l-1.39-79.1z"/>
    <g clip-path="url(#g)">
     
      <path id="1" class="fil5" d="m640.35 210.4c-457.02-94.37-733.65 632.8-130.45 791l-24.98 260.89-605.04-696.64 624.47-599.5c45.33 81.41 90.67 162.83 136 244.24z"/>
     
    </g>
    <path class="fil6" d="m464.39 74.05 174.85 136-159.39 130.06c-1.86-20.11-0.59-40.74-1.59-59.29-272.54-66.59-524.8 551.85 27.76 659.17-2.78 45.33-5.55 90.67-8.33 136-556.59-170.64-512.55-786.44-31.92-922.84l-1.39-79.1z"/>
    <path class="fil7" d="m728.06 132.33c69.62 18.73 118.77 46.48 165.14 83.26l-88.81 102.69-74.94-48.57c-0.46-45.8-0.93-91.59-1.39-137.38z"/>
    <g clip-path="url(#f)">
     
      <path id="1" class="fil8" d="m708.39 93.62c1.83 40.91 3.36 75.15 5.19 116.06 76.05 0.7 124.56 43.91 153.79 91l88.13-88.98-247.11-118.07z"/>
      <path class="fil8" d="m998.52 156.03c1.83 40.91 3.36 75.15 5.19 116.06 76.05 0.7 124.56 43.91 153.8 91l88.13-88.98-247.11-118.07z"/>
     
    </g>
    <path class="fil6" d="m728.06 132.33c69.62 18.73 118.77 46.48 165.14 83.26l-88.81 102.69-74.94-48.57c-0.46-45.8-0.93-91.59-1.39-137.38z"/>
    <path class="fil7" d="m977.85 293.31-91.59 81.88 62.45 106.85 120.73-43.02c-12.83-64.87-49.96-108.24-91.59-145.71z"/>
    <g clip-path="url(#e)">
     
      <path id="1" class="fil8" d="m967.11 226.3c-19.88 35.8-36.52 65.77-56.39 101.57 57.45 57.77 79.32 122.41 83.31 158.09l121.69-29.61-148.61-230.05z"/>
     
    </g>
    <path class="fil6" d="m977.85 293.31-91.59 81.88 62.45 106.85 120.73-43.02c-12.83-64.87-49.96-108.24-91.59-145.71z"/>
    <path class="fil7" d="m965.37 538.94c44.87-4.17 89.74-8.33 134.61-12.49 10.52 63.37 9.6 104.54-2.78 160.98l-136-4.16c14.57-37.7 17.35-89.97 4.17-144.32z"/>
    <g clip-path="url(#d)">
     
      <path id="1" class="fil8" d="m1109.4 467.72c-35.4 20.57-65.04 37.79-100.44 58.37 15.21 82.89 14.74 145.9-9.39 178.45l119.69 36.88-9.86-273.69z"/>
     
    </g>
    <path class="fil6" d="m965.37 538.94c44.87-4.17 89.74-8.33 134.61-12.49 10.52 63.37 9.6 104.54-2.78 160.98l-136-4.16c14.57-37.7 17.35-89.97 4.17-144.32z"/>
    <path class="fil7" d="m937.61 734.61 133.22 38.86c-21.74 72.04-46.26 111.83-90.2 152.65l-95.75-87.43 52.74-104.08z"/>
    <g clip-path="url(#c)">
     
      <path id="h" class="fil8" d="m1121 738.2c-40.94-0.78-75.21-1.43-116.15-2.21-25.37 79.89-51.74 121.51-100.59 147.69l83.19 93.61 133.55-239.1z"/>
     
    </g>
    <path class="fil6" d="m937.61 734.61 133.22 38.86c-21.74 72.04-46.26 111.83-90.2 152.65l-95.75-87.43 52.74-104.08z"/>
    <polygon class="fil7" points="790.51 876.16 869.61 977.46 753.04 1051 750.26 1126 572.63 991.34 748.87 841.46 751.65 902.52"/>
    <g clip-path="url(#b)">
     
      <path class="fil8" d="m861.89 899.1c-87.09 68-152.48 107.16-328.92 87.71l202.41 237.84 195.67-226.03-69.16-99.52z"/>
     
    </g>
    <polygon class="fil6" points="790.51 876.16 869.61 977.46 753.04 1051 750.26 1126 572.63 991.34 748.87 841.46 751.65 902.52"/>
   
   
    <path class="fil9" d="m656.28 607.69-0.02-0.11-19.45 4.52 0.06 0.08-14.97 3.47 0.04-0.1-10.87 2.53 45.22-10.4zm-45.42 10.99-0.41 1.12c-4.13 10.94-1.93 4.48 0.48 10.46 1.62 3.99 0.28 8.69 0.64 10.5 0.69 3.48-0.02 0.54 1.13 2.05l1.09 1.53c-0.5 0.12-2.85 0.78-3.08 0.77-4.43-0.1-1.08-8.08-1.75-11.08-0.74-1.41-1.48-2.19-2.14-3.54-2.79-5.72 0.06-8.85-0.5-11.23l4.68-1.08-0.16 0.5zm-4.54 0.5-134.57 31.26 3.56 31.07c10.2-2.37 39.32-7.69 47.59-12.87 4.65-2.91 9.22-4.87 14.59-6.03 4.63-1 9.9-0.99 14.31-0.2 6.25 1.11 41.52-8.32 49.28-10.12 43.8-10.18 88.33-19.65 132.01-30.7l-0.6-4.83-11.09-93.48-257.63 59.82 1.93 17.35c-8.08 2.82-52 12.25-63.97 15.03-21.55 5.01-43.1 9.94-64.65 15.02-20.27 4.77-41.42 11.57-61.69 17.41-20.35 5.85-40.77 11.69-61.01 17.65 86.75-18.48 174.97-41.35 261.63-60.61 5.82-1.3 12.38-2.8 18.48-4.21 6.31-1.47 12.06-4.08 16.9-1.48-12.67 3.75-31.07 6.92-44.52 10.48l3.69 31.52c-10.54 3.93-87.72 19.82-105 24.65-16.74 4.68-32.91 9.99-49.56 14.68-16.51 4.65-34.08 11.12-50.61 14.7 5.59 0.39 332.22-77.26 363.74-84.2l45.75-10.5c5.07-1.24 4.84-1.95 6.15-0.11-0.59 2.09 1.26 0.69-2.09 1.96l-22.66 5.25-49.96 11.5zm78.01-90.35 28.27-48.47c3.33-0.11 1.5 0.85 3.8 1.64l-6.94-59.53-257.66 59.82 1.96 17.49c-9.97 3.53-43.57 11.15-56.46 14.54-6.78 1.78-51.74 14.85-54.28 16.77 34.06-6.63 72.48-16.77 107.34-24.67 5.96-1.35 11.92-2.79 17.87-4.17l13.22-3.16c2.73-1.07 0.89-1.87 2.24-0.51l23.97-5.51c3.34-0.82 4.27-1.56 6.13 1.11l-58.82 13.76 3.8 34.24c-8.7 3.02-39.52 9.57-51.37 12.67-17.24 4.5-34.62 8.34-51.89 12.69-4.44 1.11-91.65 23.86-98.37 26.66l-1.33 0.74c-0.1 0.06-0.28 0.17-0.4 0.29 47.48-9.96 95.26-22.01 142.69-33l107.24-24.88c4.46-1.05 27.84-8.07 32-5.99 0.62 0.31 0.75 0.43 1.08 0.67l-78.56 18.35 2.69 23.44c-6.58 2.45-55.95 13.18-67.14 15.78-64.1 14.89-132.89 34.8-196.99 51.96 4 0.94 52.13-11.44 60.59-13.4l288.05-66.91c2.5-0.57 5.37-1.5 6.95-1.77 2.61-0.45 5.15-1.05 7.76-1.66 13.06-3.03 119.48-26.92 122.56-28.97z"/>
   
   <polygon class="fil1 str0" points="367.02 788.47 587.33 727.51 590.38 720.19"/>
   <polygon class="fil1" points="586.57 719.58 576.96 731.12 586.13 733.18 595.3 717.69"/>
   <polygon class="fil9" points="604.91 619.51 612.07 617.85 615.88 644.86 604.17 648.5"/>
  
 
</svg>
