<?xml version="1.0" encoding="UTF-8"?>
<!DOCTYPE svg PUBLIC "-//W3C//DTD SVG 1.1//EN" "http://www.w3.org/Graphics/SVG/1.1/DTD/svg11.dtd">
<!-- Creator: CorelDRAW 2017 -->
<svg xmlns="http://www.w3.org/2000/svg" xml:space="preserve" width="7.11in" height="9.141in" version="1.1" style="shape-rendering:geometricPrecision; text-rendering:geometricPrecision; image-rendering:optimizeQuality; fill-rule:evenodd; clip-rule:evenodd"
viewBox="0 0 7110 9141"
 xmlns:xlink="http://www.w3.org/1999/xlink">
 <defs>
  <style type="text/css">
   <![CDATA[
    .str0 {stroke:#D8E2DD;stroke-width:3;stroke-miterlimit:2.61313}
    .fil6 {fill:none}
    .fil1 {fill:#081A30}
    .fil10 {fill:#081A30}
    .fil9 {fill:#192533}
    .fil5 {fill:#198CB8}
    .fil4 {fill:#60A9CC}
    .fil3 {fill:#D8E2DD}
    .fil7 {fill:#EB0A3A}
    .fil2 {fill:whitesmoke}
    .fil12 {fill:#198CB8;fill-rule:nonzero}
    .fil8 {fill:#86061F;fill-opacity:0.200000}
    .fil0 {fill:url(#id6)}
    .fil11 {fill:url(#id7);fill-rule:nonzero}
   ]]>
  </style>
     <clipPath id="id0">
      <path d="M3195.96 3097.92l359.94 279.96 -328.11 267.74c-3.83,-41.39 -1.22,-83.87 -3.27,-122.05 -561.02,-137.07 -1080.31,1135.99 57.14,1356.91 -5.71,93.31 -11.43,186.64 -17.14,279.96 -1145.76,-351.28 -1055.09,-1618.91 -65.7,-1899.68l-2.86 -162.83z"/>
     </clipPath>
     <clipPath id="id1">
      <path d="M3738.72 3217.89c143.31,38.56 244.48,95.69 339.94,171.39l-182.82 211.39 -154.26 -99.98c-0.95,-94.27 -1.91,-188.54 -2.86,-282.8z"/>
     </clipPath>
     <clipPath id="id2">
      <path d="M4252.93 3549.27l-188.54 168.54 128.55 219.96 248.53 -88.56c-26.43,-133.55 -102.84,-222.82 -188.54,-299.95z"/>
     </clipPath>
     <clipPath id="id3">
      <path d="M4227.22 4054.89c92.37,-8.57 184.74,-17.14 277.1,-25.71 21.67,130.46 19.76,215.2 -5.71,331.37l-279.95 -8.57c29.99,-77.61 35.7,-185.21 8.57,-297.09z"/>
     </clipPath>
     <clipPath id="id4">
      <path d="M4170.09 4457.68l274.24 79.99c-44.75,148.31 -95.22,230.2 -185.68,314.23l-197.11 -179.98 108.55 -214.25z"/>
     </clipPath>
     <clipPath id="id5">
      <path d="M3867.27 4749.06l162.83 208.53 -239.95 151.4 -5.71 154.26 -365.65 -277.1 362.8 -308.52 5.71 125.69 79.98 -54.27z"/>
     </clipPath>
  <linearGradient id="id6" gradientUnits="userSpaceOnUse" x1="3797.21" y1="3878.59" x2="3709.72" y2="4748.55">
   <stop offset="0" style="stop-opacity:1; stop-color:#EB0A3A"/>
   <stop offset="1" style="stop-opacity:1; stop-color:#86061F"/>
  </linearGradient>
  <linearGradient id="id7" gradientUnits="userSpaceOnUse" x1="2880.46" y1="5375.87" x2="2875.26" y2="5912.33">
   <stop offset="0" style="stop-opacity:1; stop-color:red"/>
   <stop offset="1" style="stop-opacity:1; stop-color:#86061F"/>
  </linearGradient>
 </defs>
 <g id="Layer_x0020_1">
  <metadata id="CorelCorpID_0Corel-Layer"/>
  <g id="_2253225493712">
   <g>
    <g>
     <path class="fil0" d="M3699.77 4248.4l-424.27 103.83 1.68 17.93 -22.51 10.16 -1.3 51.84 23.04 -3.92 7.54 19 61.84 -11.75c8.47,-132.35 143.41,-165.34 141.15,-36.62l79.94 -20.3c10.26,-23.97 -7.21,-16.7 15.48,-25.48 5.67,-2.2 25.64,-5.56 33.53,-7.22l7.54 25.41 113.31 -26.93 5.77 -30.67c15.07,-0.21 8.18,4.22 16.71,16.01l196.36 -46.89c6.4,-51.8 26.26,-86.83 58.09,-104.24 19.74,-10.8 45.65,-11.14 62.15,2.76 18.72,15.78 20.34,36.09 22.38,64.76 10.33,-1.35 17.84,-2.83 27.54,-5.26 24.56,-6.13 33.62,-22.62 42.91,-68.94l-12.45 -6.51c-0.83,-0.38 -2.24,-0.98 -2.94,-1.29 -0.69,-0.31 -1.99,-0.69 -2.93,-1.21l3.11 -108.73c-64.53,-36.77 -88.44,-9.76 -109.87,-32.74l-70.37 -78.08c-19.19,-19.06 -48.81,-64.33 -76.52,-71.27 -29.37,-7.36 -86.24,11.06 -116.93,18.37 -10.09,33.98 -19.08,308.57 -21.72,366.33l-58.89 14.28 0.61 -22.65z"/>
     <path class="fil1" d="M3955.61 4282.8c2.44,51.62 34.68,83.85 80.33,62.35 35.15,-16.55 54.22,-51.48 62.28,-99.06 -2.04,-28.67 -3.66,-48.98 -22.38,-64.76 -16.5,-13.91 -42.41,-13.56 -62.15,-2.76 -31.83,17.41 -51.69,52.44 -58.09,104.24z"/>
     <path class="fil1" d="M3345.8 4435.49c3.9,49.89 36.68,77.67 79.13,58.42 32.57,-14.76 53.68,-47.28 62.02,-95.04 2.25,-128.72 -132.69,-95.73 -141.15,36.62z"/>
     <path class="fil2" d="M3828.99 3939.61l-8.15 128.53 181.73 -43.39c-5.15,-12.29 -55.37,-64.34 -69.47,-78.63 -14.76,-14.96 -19.99,-25.89 -47.99,-20.4 -18.14,3.55 -37.11,8.92 -56.12,13.9z"/>
     <path class="fil3" d="M3409.18 4364.91c-50.86,29.1 -34.35,113.7 15.2,87.53 44.22,-23.36 40.54,-119.41 -15.2,-87.53z"/>
     <path class="fil3" d="M4019.97 4216.01c-54.55,34.08 -31.2,114.29 15.37,87.56 45.32,-26.02 35.94,-119.62 -15.37,-87.56z"/>
    </g>
    <path class="fil4" d="M3195.96 3097.92l359.94 279.96 -328.11 267.74c-3.83,-41.39 -1.22,-83.87 -3.27,-122.05 -561.02,-137.07 -1080.31,1135.99 57.14,1356.91 -5.71,93.31 -11.43,186.64 -17.14,279.96 -1145.76,-351.28 -1055.09,-1618.91 -65.7,-1899.68l-2.86 -162.83z"/>
    <g style="clip-path:url(#id0)">
     <g>
      <path id="1" class="fil5" d="M3558.17 3378.59c-940.78,-194.25 -1510.21,1302.63 -268.53,1628.29l-51.43 537.05 -1245.49 -1434.04 1285.48 -1234.07c93.32,167.59 186.64,335.18 279.96,502.77z"/>
     </g>
    </g>
    <path class="fil6" d="M3195.96 3097.92l359.94 279.96 -328.11 267.74c-3.83,-41.39 -1.22,-83.87 -3.27,-122.05 -561.02,-137.07 -1080.31,1135.99 57.14,1356.91 -5.71,93.31 -11.43,186.64 -17.14,279.96 -1145.76,-351.28 -1055.09,-1618.91 -65.7,-1899.68l-2.86 -162.83z"/>
    <path class="fil7" d="M3738.72 3217.89c143.31,38.56 244.48,95.69 339.94,171.39l-182.82 211.39 -154.26 -99.98c-0.95,-94.27 -1.91,-188.54 -2.86,-282.8z"/>
    <g style="clip-path:url(#id1)">
     <g>
      <path id="1" class="fil8" d="M3698.24 3138.2c3.76,84.2 6.91,154.7 10.67,238.9 156.54,1.44 256.4,90.39 316.58,187.32l181.43 -183.16 -508.68 -243.06z"/>
      <path class="fil8" d="M4295.46 3266.68c3.76,84.2 6.91,154.7 10.67,238.9 156.54,1.44 256.4,90.39 316.58,187.32l181.43 -183.16 -508.68 -243.06z"/>
     </g>
    </g>
    <path class="fil6" d="M3738.72 3217.89c143.31,38.56 244.48,95.69 339.94,171.39l-182.82 211.39 -154.26 -99.98c-0.95,-94.27 -1.91,-188.54 -2.86,-282.8z"/>
    <path class="fil7" d="M4252.93 3549.27l-188.54 168.54 128.55 219.96 248.53 -88.56c-26.43,-133.55 -102.84,-222.82 -188.54,-299.95z"/>
    <g style="clip-path:url(#id2)">
     <g>
      <path id="1" class="fil8" d="M4230.8 3411.32c-40.92,73.69 -75.17,135.39 -116.09,209.07 118.26,118.92 163.28,252 171.5,325.43l250.5 -60.94 -305.91 -473.56z"/>
     </g>
    </g>
    <path class="fil6" d="M4252.93 3549.27l-188.54 168.54 128.55 219.96 248.53 -88.56c-26.43,-133.55 -102.84,-222.82 -188.54,-299.95z"/>
    <path class="fil7" d="M4227.22 4054.89c92.37,-8.57 184.74,-17.14 277.1,-25.71 21.67,130.46 19.76,215.2 -5.71,331.37l-279.95 -8.57c29.99,-77.61 35.7,-185.21 8.57,-297.09z"/>
    <g style="clip-path:url(#id3)">
     <g>
      <path id="1" class="fil8" d="M4523.64 3908.3c-72.87,42.34 -133.89,77.8 -206.76,120.15 31.31,170.64 30.33,300.34 -19.32,367.34l246.37 75.92 -20.29 -563.4z"/>
     </g>
    </g>
    <path class="fil6" d="M4227.22 4054.89c92.37,-8.57 184.74,-17.14 277.1,-25.71 21.67,130.46 19.76,215.2 -5.71,331.37l-279.95 -8.57c29.99,-77.61 35.7,-185.21 8.57,-297.09z"/>
    <path class="fil7" d="M4170.09 4457.68l274.24 79.99c-44.75,148.31 -95.22,230.2 -185.68,314.23l-197.11 -179.98 108.55 -214.25z"/>
    <g style="clip-path:url(#id4)">
     <g>
      <path id="1" class="fil8" d="M4547.61 4465.07c-84.27,-1.61 -154.82,-2.94 -239.09,-4.55 -52.24,164.46 -106.52,250.13 -207.08,304.03l171.25 192.71 274.92 -492.19z"/>
     </g>
    </g>
    <path class="fil6" d="M4170.09 4457.68l274.24 79.99c-44.75,148.31 -95.22,230.2 -185.68,314.23l-197.11 -179.98 108.55 -214.25z"/>
    <polygon class="fil7" points="3867.27,4749.06 4030.09,4957.59 3790.14,5109 3784.43,5263.26 3418.78,4986.16 3781.57,4677.64 3787.28,4803.33 "/>
    <g style="clip-path:url(#id5)">
     <g>
      <path id="1" class="fil8" d="M4014.22 4796.28c-179.28,139.98 -313.87,220.59 -677.09,180.56l416.67 489.59 402.78 -465.28 -142.36 -204.86z"/>
     </g>
    </g>
    <polygon class="fil6" points="3867.27,4749.06 4030.09,4957.59 3790.14,5109 3784.43,5263.26 3418.78,4986.16 3781.57,4677.64 3787.28,4803.33 "/>
   </g>
   <g>
    <path class="fil9" d="M3590.96 4196.42l-0.04 -0.22 -40.03 9.3 0.11 0.18 -30.82 7.15 0.07 -0.21 -22.39 5.21 93.1 -21.4zm-93.5 22.62l-0.83 2.3c-8.51,22.52 -3.98,9.23 1,21.52 3.33,8.22 0.57,17.88 1.31,21.61 1.42,7.16 -0.03,1.1 2.33,4.23l2.25 3.14c-1.03,0.24 -5.86,1.59 -6.34,1.59 -9.11,-0.21 -2.22,-16.63 -3.6,-22.8 -1.53,-2.9 -3.05,-4.5 -4.4,-7.28 -5.74,-11.77 0.12,-18.22 -1.02,-23.11l9.64 -2.24 -0.34 1.04zm-9.34 1.04l-277.02 64.36 7.32 63.96c21,-4.88 80.95,-15.84 97.96,-26.49 9.57,-5.98 18.97,-10.02 30.04,-12.41 9.52,-2.05 20.39,-2.04 29.45,-0.42 12.87,2.29 85.46,-17.12 101.44,-20.84 90.17,-20.95 181.82,-40.44 271.75,-63.2l-1.24 -9.93 -22.82 -192.44 -530.34 123.15 3.98 35.7c-16.63,5.8 -107.05,25.21 -131.69,30.93 -44.35,10.31 -88.72,20.48 -133.09,30.92 -41.72,9.82 -85.26,23.83 -126.98,35.83 -41.88,12.04 -83.91,24.07 -125.58,36.34 178.57,-38.04 360.17,-85.12 538.57,-124.78 11.99,-2.67 25.49,-5.75 38.05,-8.67 13,-3.02 24.83,-8.4 34.78,-3.06 -26.09,7.72 -63.95,14.24 -91.64,21.58l7.59 64.88c-21.7,8.09 -180.58,40.81 -216.15,50.75 -34.45,9.64 -67.74,20.57 -102.02,30.22 -33.98,9.57 -70.15,22.89 -104.18,30.27 11.51,0.8 683.88,-159.05 748.76,-173.33l94.17 -21.61c10.44,-2.55 9.98,-4.02 12.65,-0.21 -1.2,4.29 2.59,1.42 -4.29,4.03l-46.64 10.81 -102.83 23.66zm160.57 -185.99l58.2 -99.78c6.85,-0.24 3.09,1.76 7.83,3.38l-14.3 -122.54 -530.4 123.15 4.04 36c-20.52,7.26 -89.7,22.96 -116.22,29.93 -13.97,3.67 -106.51,30.56 -111.74,34.51 70.1,-13.64 149.19,-34.52 220.96,-50.78 12.26,-2.78 24.53,-5.75 36.79,-8.59l27.22 -6.51c5.62,-2.2 1.83,-3.85 4.62,-1.04l49.35 -11.35c6.87,-1.69 8.79,-3.21 12.62,2.29l-121.08 28.32 7.82 70.48c-17.92,6.22 -81.34,19.72 -105.74,26.08 -35.49,9.25 -71.28,17.17 -106.81,26.11 -9.14,2.3 -188.66,49.12 -202.51,54.87l-2.74 1.52c-0.21,0.13 -0.57,0.36 -0.83,0.6 97.75,-20.5 196.08,-45.3 293.73,-67.93l220.74 -51.22c9.17,-2.16 57.31,-16.62 65.86,-12.33 1.29,0.65 1.54,0.88 2.24,1.39l-161.71 37.78 5.54 48.24c-13.54,5.05 -115.19,27.14 -138.22,32.48 -131.95,30.66 -273.56,71.65 -405.5,106.97 8.24,1.93 107.31,-23.56 124.73,-27.58l592.95 -137.74c5.15,-1.18 11.06,-3.09 14.31,-3.65 5.38,-0.92 10.6,-2.16 15.99,-3.42 26.87,-6.23 245.94,-55.41 252.28,-59.63z"/>
   </g>
   <polygon class="fil10 str0" points="2995.51,4568.55 3449.02,4443.06 3455.31,4427.99 "/>
   <polygon class="fil10" points="3447.46,4426.75 3427.69,4450.5 3446.56,4454.74 3465.44,4422.84 "/>
   <polygon class="fil9" points="3485.22,4220.75 3499.96,4217.33 3507.8,4272.94 3483.7,4280.43 "/>
  </g>
  <path class="fil11" d="M2516.5 5487.24l0 28 185.5 0c38.67,0 66.92,8.75 84.75,26.25 17.83,17.5 26.75,45.75 26.75,84.75 0,14 -2,27.17 -6,39.5 -4,12.33 -9.92,23.17 -17.75,32.5 -7.83,9.33 -17.5,16.75 -29,22.25 -11.5,5.5 -24.75,8.25 -39.75,8.25l-297.5 0 0 -93 297.5 0 0 -27.5 -204.5 0c-15,0 -28.25,-2.75 -39.75,-8.25 -11.5,-5.5 -21.17,-12.91 -29,-22.25 -7.83,-9.33 -13.83,-20.17 -18,-32.5 -4.17,-12.33 -6.25,-25.5 -6.25,-39.5 0,-14.67 1.67,-28.75 5,-42.25 3.33,-13.5 8.75,-25.33 16.25,-35.5 7.5,-10.17 17.17,-18.33 29,-24.5 11.83,-6.17 26.08,-9.25 42.75,-9.25l297 0 0 93 -297 0zm645.5 148.5l0 93 -316 0 0 -334.5 93 0 0 241.5 223 0zm128.5 -148.5l0 28 185.5 0c38.67,0 66.92,8.75 84.75,26.25 17.83,17.5 26.75,45.75 26.75,84.75 0,14 -2,27.17 -6,39.5 -4,12.33 -9.92,23.17 -17.75,32.5 -7.83,9.33 -17.5,16.75 -29,22.25 -11.5,5.5 -24.75,8.25 -39.75,8.25l-297.5 0 0 -93 297.5 0 0 -27.5 -204.5 0c-15,0 -28.25,-2.75 -39.75,-8.25 -11.5,-5.5 -21.17,-12.91 -29,-22.25 -7.83,-9.33 -13.83,-20.17 -18,-32.5 -4.17,-12.33 -6.25,-25.5 -6.25,-39.5 0,-14.67 1.67,-28.75 5,-42.25 3.33,-13.5 8.75,-25.33 16.25,-35.5 7.5,-10.17 17.17,-18.33 29,-24.5 11.83,-6.17 26.08,-9.25 42.75,-9.25l297 0 0 93 -297 0z"/>
  <path class="fil12" d="M3722.14 5726.07l0 -48.7 25.3 0c20.04,0 37.56,-6.22 50.96,-18.41 12.74,-12.04 19.26,-27.07 19.26,-44.56 0,-17.37 -6.52,-32.48 -19.26,-44.74 -13.11,-12.26 -30.22,-18.48 -49.96,-18.48l-68.93 0 -0.04 174.89 42.67 0zm51.15 -111.67c0,12 -12.26,20.67 -24.85,20.67l-24.56 -0.07 0 -41.37 24.63 0c12.48,0 24.78,8.74 24.78,20.78zm130.07 -51.67c11.26,0 21.81,2.15 31.74,6.44 9.89,4.3 18.56,10.11 25.96,17.44 7.41,7.33 13.22,15.96 17.52,25.89 4.3,9.93 6.44,20.52 6.44,31.78 0,11.26 -2.15,21.85 -6.44,31.78 -4.3,9.93 -10.11,18.56 -17.52,25.89 -7.41,7.33 -16.07,13.15 -25.96,17.44 -9.93,4.3 -20.48,6.44 -31.74,6.44 -11.26,0 -21.81,-2.15 -31.74,-6.44 -9.89,-4.3 -18.52,-10.11 -25.85,-17.44 -7.33,-7.33 -13.11,-15.96 -17.41,-25.89 -4.3,-9.93 -6.44,-20.52 -6.44,-31.78 0,-11.26 2.15,-21.85 6.44,-31.78 4.3,-9.93 10.07,-18.56 17.41,-25.89 7.33,-7.33 15.96,-13.15 25.85,-17.44 9.93,-4.3 20.48,-6.44 31.74,-6.44zm0.11 125.56c6.07,0 11.78,-1.15 17.11,-3.44 5.33,-2.3 10,-5.44 14,-9.44 4,-4 7.15,-8.67 9.44,-14 2.3,-5.33 3.44,-11.04 3.44,-17.11 0,-6.07 -1.15,-11.78 -3.44,-17.11 -2.3,-5.33 -5.44,-10 -9.44,-14 -4,-4 -8.67,-7.15 -14,-9.44 -5.33,-2.3 -11.04,-3.44 -17.11,-3.44 -6.07,0 -11.78,1.15 -17.11,3.44 -5.33,2.3 -10,5.44 -14,9.44 -4,4 -7.15,8.67 -9.44,14 -2.3,5.33 -3.44,11.04 -3.44,17.11 0,6.07 1.15,11.78 3.44,17.11 2.3,5.33 5.44,10 9.44,14 4,4 8.67,7.15 14,9.44 5.33,2.3 11.04,3.44 17.11,3.44zm142.22 -4.44c-1.93,0.3 -3.85,0.52 -5.78,0.67 -1.93,0.15 -3.93,0.3 -6,0.44l0 41.11 -37.56 0 0 -162.44 37.56 0c9.33,0.15 18.07,1.85 26.22,5.11 8.15,3.26 15.3,7.63 21.44,13.07 6.15,5.48 10.96,11.85 14.44,19.11 3.48,7.22 5.22,15 5.22,23.3 0,8.7 -1.85,16.81 -5.56,24.3 -3.7,7.48 -8.89,13.93 -15.56,19.41l36 58.15 -44.22 0 -26.22 -42.22zm-11.78 -36.67c4,-0.15 7.81,-0.85 11.44,-2.11 3.63,-1.26 6.81,-2.93 9.56,-5 2.74,-2.07 4.89,-4.48 6.44,-7.22 1.56,-2.74 2.33,-5.67 2.33,-8.78 0,-3.11 -0.78,-6 -2.33,-8.67 -1.56,-2.67 -3.7,-5.04 -6.44,-7.11 -2.74,-2.07 -5.93,-3.74 -9.56,-5 -3.63,-1.26 -7.44,-1.96 -11.44,-2.11l0 46zm192.22 -84.89l0 37.56 -31.33 0 0 126.22 -37.56 0 0 -126.22 -31.11 0 0 -37.56 100 0zm109.33 163.78l-6.44 -19.78 -51.33 0 -6.67 19.78 -39.78 0 55.56 -163.11 35.56 0 52.67 163.11 -39.56 0zm-44.89 -57.33l26.44 0 -12.89 -39.56 -13.56 39.56zm189.11 -106.44l0 37.56 -31.33 0 0 126.22 -37.56 0 0 -126.22 -31.11 0 0 -37.56 100 0zm53.56 163.78l-37.56 0 0 -163.33 37.56 0 0 163.33zm92.56 -163.33c11.26,0 21.81,2.15 31.74,6.44 9.89,4.3 18.56,10.11 25.96,17.44 7.41,7.33 13.22,15.96 17.52,25.89 4.3,9.93 6.44,20.52 6.44,31.78 0,11.26 -2.15,21.85 -6.44,31.78 -4.3,9.93 -10.11,18.56 -17.52,25.89 -7.41,7.33 -16.07,13.15 -25.96,17.44 -9.93,4.3 -20.48,6.44 -31.74,6.44 -11.26,0 -21.81,-2.15 -31.74,-6.44 -9.89,-4.3 -18.52,-10.11 -25.85,-17.44 -7.33,-7.33 -13.11,-15.96 -17.41,-25.89 -4.3,-9.93 -6.44,-20.52 -6.44,-31.78 0,-11.26 2.15,-21.85 6.44,-31.78 4.3,-9.93 10.07,-18.56 17.41,-25.89 7.33,-7.33 15.96,-13.15 25.85,-17.44 9.93,-4.3 20.48,-6.44 31.74,-6.44zm0.11 125.56c6.07,0 11.78,-1.15 17.11,-3.44 5.33,-2.3 10,-5.44 14,-9.44 4,-4 7.15,-8.67 9.44,-14 2.3,-5.33 3.44,-11.04 3.44,-17.11 0,-6.07 -1.15,-11.78 -3.44,-17.11 -2.3,-5.33 -5.44,-10 -9.44,-14 -4,-4 -8.67,-7.15 -14,-9.44 -5.33,-2.3 -11.04,-3.44 -17.11,-3.44 -6.07,0 -11.78,1.15 -17.11,3.44 -5.33,2.3 -10,5.44 -14,9.44 -4,4 -7.15,8.67 -9.44,14 -2.3,5.33 -3.44,11.04 -3.44,17.11 0,6.07 1.15,11.78 3.44,17.11 2.3,5.33 5.44,10 9.44,14 4,4 8.67,7.15 14,9.44 5.33,2.3 11.04,3.44 17.11,3.44zm186.89 -125.33l37.56 0 0 163.11 -40.67 0 -53.33 -95.11 0 95.11 -37.56 0 0 -162.67 40.89 0 53.11 94.89 0 -95.33z"/>
  <polygon class="fil9" points="3722.2,4014.6 3712.65,3921.69 3647.02,4034.08 "/>
 </g>
</svg>
